<?xml version="1.0" encoding="utf-8"?>
<!-- Svg Vector Icons : http://www.onlinewebfonts.com/icon -->
<!DOCTYPE svg PUBLIC "-//W3C//DTD SVG 1.1//EN" "http://www.w3.org/Graphics/SVG/1.1/DTD/svg11.dtd">
<svg version="1.1" xmlns="http://www.w3.org/2000/svg" xmlns:xlink="http://www.w3.org/1999/xlink" x="0px" y="0px" viewBox="0 0 256 256" enable-background="new 0 0 256 256" xml:space="preserve">
<metadata> Svg Vector Icons : http://www.onlinewebfonts.com/icon </metadata>
<g><g><path fill="#34932b" d="M128,223.1c52.6,0,95.1-42.5,95.1-95.1S180.6,32.9,128,32.9S32.9,75.4,32.9,128S75.5,223.1,128,223.1L128,223.1z M128,10c65.2,0,118,52.8,118,118c0,65.2-52.8,118-118,118c-65.2,0-118-52.8-118-118C10,62.8,62.8,10,128,10L128,10z M77.9,160.1l-18.4-18.5l69-68.7l69,68.7l-18.4,18.5l-50.6-50.4L77.9,160.1L77.9,160.1z"/></g></g>
</svg>